<svg xmlns="http://www.w3.org/2000/svg" version="1.1" xmlns:xlink="http://www.w3.org/1999/xlink" xmlns:svgjs="http://svgjs.dev/svgjs" width="2000" height="1500" viewBox="0 0 2000 1500"><rect width="2000" height="1500" fill="#000000"></rect><g transform="matrix(0.75,0,0,0.75,249.090909090909,282.7536437246963)"><svg viewBox="0 0 396 247" data-background-color="#000000" preserveAspectRatio="xMidYMid meet" height="1247" width="2000" xmlns="http://www.w3.org/2000/svg" xmlns:xlink="http://www.w3.org/1999/xlink"><g id="tight-bounds" transform="matrix(1,0,0,1,0.2400000000000091,-0.09999999999999432)"><svg viewBox="0 0 395.52 247.2" height="247.2" width="395.52"><g><svg></svg></g><g><svg viewBox="0 0 395.52 247.2" height="247.2" width="395.52"><g transform="matrix(1,0,0,1,75.54432000000001,87.36904684759917)"><svg viewBox="0 0 244.43135999999996 72.46190630480166" height="72.46190630480166" width="244.43135999999996"><g><svg viewBox="0 0 244.43135999999996 72.46190630480166" height="72.46190630480166" width="244.43135999999996"><g><svg viewBox="0 0 244.43136 72.46190630480167" height="72.46190630480166" width="244.43135999999996"><g><svg viewBox="0 0 244.43136 72.46190630480167" height="72.46190630480167" width="244.43136"><g id="textblocktransform"><svg viewBox="0 0 244.43136 72.46190630480167" height="72.46190630480167" width="244.43136" id="textblock"><g><svg viewBox="0 0 244.43136 72.46190630480167" height="72.46190630480167" width="244.43136"><g transform="matrix(1,0,0,1,0,0)"><svg width="244.43136" viewBox="4.650000095367432 -34.29999923706055 155.66000366210938 46.150001525878906" height="72.46190630480167" data-palette-color="#ffffff"><path d="M10.55 0L4.65 0 4.65-34.3 10.55-34.3 10.55 0ZM29.42 0.7L29.42 0.7Q26.1 0.7 23.41-0.73 20.72-2.15 19.15-4.99 17.57-7.83 17.57-12.1L17.57-12.1Q17.57-16.45 19.15-19.3 20.72-22.15 23.41-23.55 26.1-24.95 29.42-24.95L29.42-24.95Q32.7-24.95 35.36-23.55 38.02-22.15 39.6-19.3 41.17-16.45 41.17-12.1L41.17-12.1Q41.17-7.83 39.6-4.99 38.02-2.15 35.36-0.73 32.7 0.7 29.42 0.7ZM29.22-4.45L29.22-4.45Q30.97-4.45 32.34-5.31 33.7-6.18 34.49-7.88 35.27-9.58 35.27-12.1L35.27-12.1Q35.27-15.95 33.76-17.9 32.25-19.85 29.62-19.85L29.62-19.85Q27.85-19.85 26.47-18.99 25.1-18.13 24.31-16.4 23.52-14.68 23.52-12.1L23.52-12.1Q23.52-8.3 25.06-6.38 26.6-4.45 29.22-4.45ZM57.72 0.7L57.72 0.7Q54.4 0.7 51.71-0.73 49.02-2.15 47.45-4.99 45.87-7.83 45.87-12.1L45.87-12.1Q45.87-16.45 47.45-19.3 49.02-22.15 51.71-23.55 54.4-24.95 57.72-24.95L57.72-24.95Q61-24.95 63.66-23.55 66.32-22.15 67.9-19.3 69.47-16.45 69.47-12.1L69.47-12.1Q69.47-7.83 67.9-4.99 66.32-2.15 63.66-0.73 61 0.7 57.72 0.7ZM57.52-4.45L57.52-4.45Q59.27-4.45 60.63-5.31 62-6.18 62.78-7.88 63.57-9.58 63.57-12.1L63.57-12.1Q63.57-15.95 62.06-17.9 60.55-19.85 57.92-19.85L57.92-19.85Q56.15-19.85 54.77-18.99 53.4-18.13 52.61-16.4 51.82-14.68 51.82-12.1L51.82-12.1Q51.82-8.3 53.36-6.38 54.9-4.45 57.52-4.45ZM88.62 0.7L88.62 0.7Q85.94 0.7 84.07-0.45 82.19-1.6 81.21-3.94 80.22-6.28 80.22-9.8L80.22-9.8 82.37-9.8Q82.37-8.18 83.12-7.03 83.87-5.88 85.11-5.26 86.34-4.65 87.77-4.65L87.77-4.65Q89.24-4.65 90.68-5.46 92.12-6.28 93.07-7.94 94.02-9.6 94.02-12.15L94.02-12.15Q94.02-14.48 93.22-16.16 92.42-17.85 91.03-18.75 89.64-19.65 87.87-19.65L87.87-19.65Q86.37-19.65 85.12-18.98 83.87-18.3 83.12-17.01 82.37-15.73 82.37-13.9L82.37-13.9 80.22-13.9Q80.22-17.73 81.39-20.16 82.57-22.6 84.54-23.78 86.52-24.95 88.87-24.95L88.87-24.95Q91.74-24.95 94.28-23.43 96.82-21.9 98.39-19.04 99.97-16.18 99.97-12.15L99.97-12.15Q99.97-8.1 98.37-5.23 96.77-2.35 94.18-0.83 91.59 0.7 88.62 0.7ZM82.37 11.85L76.47 11.85 76.47-24.25 81.32-24.25 82.37-18.25 82.37 11.85ZM127.57 0L122.42 0 121.67-5.9 121.67-15.65Q121.67-18.2 120.63-19.43 119.59-20.65 117.12-20.65L117.12-20.65Q115.69-20.65 114.64-20.23 113.59-19.8 113.03-19.01 112.47-18.23 112.47-17.1L112.47-17.1 106.02-17.1Q106.02-19.85 107.34-21.59 108.67-23.33 111.15-24.14 113.64-24.95 117.12-24.95L117.12-24.95Q120.27-24.95 122.62-23.94 124.97-22.93 126.27-20.83 127.57-18.73 127.57-15.45L127.57-15.45 127.57 0ZM114.47 0.7L114.47 0.7Q111.34 0.7 109.25-0.39 107.17-1.48 106.12-3.25 105.07-5.03 105.07-7.1L105.07-7.1Q105.07-9.4 106.28-10.96 107.49-12.53 109.72-13.31 111.94-14.1 114.97-14.1L114.97-14.1Q116.94-14.1 118.7-13.8 120.47-13.5 122.22-13L122.22-13 122.22-9.55Q120.84-10 119.22-10.25 117.59-10.5 116.17-10.5L116.17-10.5Q114.07-10.5 112.72-9.73 111.37-8.95 111.37-7.1L111.37-7.1Q111.37-5.75 112.47-4.78 113.57-3.8 115.97-3.8L115.97-3.8Q117.79-3.8 119.07-4.6 120.34-5.4 121-6.6 121.67-7.8 121.67-9L121.67-9 123.07-9Q123.07-6.38 122.09-4.16 121.12-1.95 119.2-0.63 117.29 0.7 114.47 0.7ZM142.11 0L136.21 0 136.21-34.3 142.11-34.3 142.11 0ZM141.31-8.95L141.31-15.05 151.71-24.25 159.71-24.25 141.31-8.95ZM160.31 0L153.11 0 142.26-15.45 147.86-16.8 160.31 0Z" opacity="1" transform="matrix(1,0,0,1,0,0)" fill="#ffffff" class="wordmark-text-0" data-fill-palette-color="primary" id="text-0"></path></svg></g></svg></g></svg></g></svg></g></svg></g></svg></g></svg></g><g><path d="M245.816 0c68.262 0 123.6 55.338 123.6 123.6 0 68.262-55.338 123.6-123.6 123.6-52.467 0-97.299-32.691-115.237-78.816l3.514 0c17.766 44.28 61.093 75.548 111.723 75.549 66.458 0 120.333-53.875 120.332-120.333 0-66.458-53.875-120.333-120.332-120.333-50.63 0-93.957 31.269-111.723 75.549l-3.514 0c17.938-46.124 62.77-78.816 115.237-78.816z" fill="#ffffff" stroke="transparent" data-fill-palette-color="tertiary"></path></g></svg></g><defs></defs></svg><rect width="395.52" height="247.2" fill="none" stroke="none" visibility="hidden"></rect></g></svg></g></svg>